# Blender v3.5.0 OBJ File: 'floor.blend'
# www.blender.org
mtllib floor.mtl
o Cube
v 1.000000 1.000000 -1.000000
v 1.000000 -1.000000 -1.000000
v 1.000000 1.000000 1.000000
v 1.000000 -1.000000 1.000000
v -1.000000 1.000000 -1.000000
v -1.000000 -1.000000 -1.000000
v -1.000000 1.000000 1.000000
v -1.000000 -1.000000 1.000000
v -1.000000 -1.000000 10.178038
v -1.000000 1.000000 10.178038
v 1.000000 1.000000 10.178038
v 1.000000 -1.000000 10.178038
v -5.336863 -1.000000 1.000000
v -5.336863 1.000000 1.000000
v -5.336863 -1.000000 10.178038
v -5.336863 1.000000 10.178038
v -1.000000 -1.298534 1.000000
v -6.873370 -1.000000 1.000000
v -6.873370 1.000000 1.000000
v -6.873370 1.000000 -1.000000
v 8.471249 1.000000 1.000000
v 8.471249 -1.000000 1.000000
v 8.471249 1.000000 10.178038
v 8.471249 -1.000000 10.178038
v 1.000000 1.000000 -4.776814
v 1.000000 -1.000000 -4.776814
v 8.471249 1.000000 -4.776814
v 8.471249 -1.000000 -4.776814
v -1.000000 1.000000 -6.414345
v -1.000000 -1.000000 -6.414345
v -6.873370 1.000000 -6.414345
v -6.873370 -1.000000 -6.414345
v -3.222395 1.000000 1.000000
v -3.222395 -1.000000 1.000000
v -3.222395 1.000000 -4.776814
v -3.222395 -1.000000 -4.776814
v -1.004784 1.004784 10.178038
v -1.004784 1.004784 1.000000
v -5.341647 -0.995216 1.000000
v -5.341647 1.004784 1.000000
v -5.341647 -0.995216 10.178038
v -5.341647 1.004784 10.178038
v -9.300444 1.000000 -1.000000
v -9.300444 -1.000000 -1.000000
v -9.300444 1.000000 -6.414345
v -9.300444 -1.000000 -6.414345
v -1.083439 -1.250317 -0.916561
v -1.083439 -1.250317 1.083439
v -6.956810 -1.250317 -0.916561
v -6.956810 -1.250317 1.083439
v -6.956810 0.749683 1.083439
v -6.956810 0.749683 -0.916561
v -6.956810 -1.250317 -6.330905
v -1.083439 -1.250317 -6.330905
v -9.383883 0.749683 -0.916561
v -9.383883 -1.250317 -0.916561
v -9.383883 -1.250317 -6.330905
v -1.000000 -1.298534 10.178038
v -5.336863 -1.298534 1.000000
v -5.336863 -1.298534 10.178038
vt 0.625000 0.500000
vt 0.875000 0.500000
vt 0.875000 0.750000
vt 0.625000 0.750000
vt 0.125000 0.750000
vt 0.125000 0.750000
vt 0.125000 0.750000
vt 0.125000 0.750000
vt 0.375000 0.000000
vt 0.375000 0.000000
vt 0.375000 0.000000
vt 0.375000 0.000000
vt 0.125000 0.500000
vt 0.375000 0.500000
vt 0.375000 0.750000
vt 0.125000 0.750000
vt 0.375000 0.250000
vt 0.625000 0.250000
vt 0.375000 0.750000
vt 0.625000 0.750000
vt 0.625000 1.000000
vt 0.375000 1.000000
vt 0.125000 0.750000
vt 0.875000 0.750000
vt 0.375000 0.750000
vt 0.375000 0.750000
vt 0.625000 0.000000
vt 0.375000 0.000000
vt 0.375000 0.000000
vt 0.625000 0.000000
vt 0.625000 0.000000
vt 0.625000 1.000000
vt 0.375000 1.000000
vt 0.125000 0.750000
vt 0.125000 0.750000
vt 0.875000 0.750000
vt 0.875000 0.500000
vt 0.875000 0.500000
vt 0.875000 0.750000
vt 0.375000 0.250000
vt 0.375000 0.250000
vt 0.375000 0.250000
vt 0.375000 0.250000
vt 0.625000 0.000000
vt 0.625000 0.750000
vt 0.625000 0.750000
vt 0.375000 0.750000
vt 0.375000 0.750000
vt 0.625000 0.750000
vt 0.625000 0.750000
vt 0.375000 0.750000
vt 0.625000 0.750000
vt 0.625000 0.250000
vt 0.375000 0.250000
vt 0.375000 0.250000
vt 0.625000 0.250000
vt 0.875000 0.500000
vt 0.875000 0.500000
vt 0.625000 0.250000
vt 0.375000 0.750000
vt 0.625000 0.750000
vt 0.375000 0.000000
vt 0.625000 0.000000
vt 0.875000 0.750000
vt 0.875000 0.750000
vt 0.875000 0.750000
vt 0.875000 0.750000
vt 0.625000 1.000000
vt 0.625000 1.000000
vt 0.375000 1.000000
vt 0.625000 0.000000
vt 0.625000 0.250000
vt 0.125000 0.750000
vt 0.125000 0.500000
vt 0.375000 0.250000
vt 0.375000 0.250000
vt 0.875000 0.500000
vt 0.875000 0.500000
vt 0.125000 0.750000
vt 0.125000 0.500000
vt 0.625000 0.000000
vt 0.625000 0.250000
vt 0.375000 0.250000
vt 0.125000 0.500000
vt 0.125000 0.500000
vt 0.125000 0.500000
vt 0.125000 0.500000
vt 0.625000 0.250000
vt 0.875000 0.500000
vt 0.375000 0.250000
vt 0.125000 0.750000
vt 0.125000 0.750000
vt 0.375000 0.000000
vt 0.375000 0.000000
vt 0.375000 1.000000
vt 0.375000 1.000000
vn 0.0000 1.0000 0.0000
vn -1.0000 0.0000 0.0000
vn 0.0000 0.3162 0.9487
vn 0.0000 -1.0000 0.0000
vn 1.0000 0.0000 0.0000
vn 0.0000 0.0000 -1.0000
vn 0.0000 0.0000 1.0000
vn -0.7071 -0.7071 0.0000
vn -0.9487 0.3162 0.0000
vn 0.7071 0.7071 0.0000
vn 0.9487 -0.3162 0.0000
vn 0.0000 -0.3162 -0.9487
vn -0.7071 0.0000 -0.7071
vn 0.7071 0.0000 0.7071
usemtl Material
s off
f 1/1/1 5/2/1 7/3/1 3/4/1
f 15/5/2 13/6/2 59/7/2 60/8/2
f 8/9/3 18/10/3 50/11/3 48/12/3
f 6/13/4 2/14/4 4/15/4 8/16/4
f 2/14/5 1/1/5 3/4/5 4/15/5
f 6/17/6 5/18/6 1/1/6 2/14/6
f 12/19/7 11/20/7 10/21/7 9/22/7
f 8/16/4 4/15/4 12/19/4 9/23/4
f 3/4/1 7/3/1 10/24/1 11/20/1
f 12/19/4 4/15/4 22/25/4 24/26/4
f 14/27/6 13/28/6 39/29/6 40/30/6
f 7/31/6 8/9/6 13/28/6 14/27/6
f 9/22/7 10/21/7 16/32/7 15/33/7
f 13/6/8 15/5/8 41/34/8 39/35/8
f 19/36/9 20/37/9 52/38/9 51/39/9
f 7/3/1 5/2/1 20/37/1 19/36/1
f 44/40/9 46/41/9 57/42/9 56/43/9
f 8/9/7 7/31/7 19/44/7 18/10/7
f 22/25/5 21/45/5 23/46/5 24/26/5
f 3/4/1 11/20/1 23/46/1 21/45/1
f 22/25/4 4/15/4 26/47/4 28/48/4
f 11/20/7 12/19/7 24/26/7 23/46/7
f 26/47/6 25/49/6 27/50/6 28/48/6
f 21/45/5 22/25/5 28/48/5 27/50/5
f 3/4/1 21/45/1 27/50/1 25/49/1
f 25/49/6 26/47/6 36/51/6 35/52/6
f 29/53/6 30/54/6 32/55/6 31/56/6
f 5/18/5 6/17/5 30/54/5 29/53/5
f 20/37/1 5/2/1 29/57/1 31/58/1
f 31/56/6 32/55/6 46/41/6 45/59/6
f 34/60/2 33/61/2 35/52/2 36/51/2
f 3/4/1 25/49/1 35/52/1 33/61/1
f 4/15/7 3/4/7 33/61/7 34/60/7
f 26/47/4 4/15/4 34/60/4 36/51/4
f 40/30/2 39/29/2 41/62/2 42/63/2
f 37/64/1 38/65/1 40/66/1 42/67/1
f 16/32/7 10/21/7 37/68/7 42/69/7
f 15/33/7 16/32/7 42/69/7 41/70/7
f 10/24/10 7/3/10 38/65/10 37/64/10
f 7/31/6 14/27/6 40/30/6 38/71/6
f 44/40/2 43/72/2 45/59/2 46/41/2
f 6/13/11 8/16/11 48/73/11 47/74/11
f 32/55/12 30/54/12 54/75/12 53/76/12
f 20/37/1 31/58/1 45/77/1 43/78/1
f 47/74/4 48/73/4 50/79/4 49/80/4
f 50/11/2 51/81/2 52/82/2 49/83/2
f 47/74/4 49/80/4 53/84/4 54/85/4
f 53/84/4 49/80/4 56/86/4 57/87/4
f 49/83/7 52/82/7 55/88/7 56/43/7
f 43/72/13 44/40/13 56/43/13 55/88/13
f 18/10/14 19/44/14 51/81/14 50/11/14
f 20/37/3 43/78/3 55/89/3 52/38/3
f 46/41/12 32/55/12 53/76/12 57/42/12
f 30/54/11 6/17/11 47/90/11 54/75/11
f 17/91/4 58/92/4 60/8/4 59/7/4
f 8/16/5 9/23/5 58/92/5 17/91/5
f 13/28/6 8/9/6 17/93/6 59/94/6
f 9/22/7 15/33/7 60/95/7 58/96/7
