# Blender v3.5.0 OBJ File: 'urandom.blend'
# www.blender.org
mtllib urandom.mtl
o Cube
v 5.521124 1.007474 -1.185407
v 5.992013 0.002656 -1.180523
v 5.232700 0.980637 1.366696
v 6.744693 0.015026 1.444784
v -1.000000 0.954077 -2.079194
v -1.046744 -0.046488 -2.053125
v -1.045923 0.954077 2.446579
v -2.010309 -0.012653 2.387974
vt 0.625000 0.500000
vt 0.875000 0.500000
vt 0.875000 0.750000
vt 0.625000 0.750000
vt 0.375000 0.745545
vt 0.625000 1.000000
vt 0.375000 1.000000
vt 0.375000 0.004455
vt 0.625000 0.000000
vt 0.625000 0.250000
vt 0.375000 0.250000
vt 0.125000 0.500000
vt 0.375000 0.500000
vt 0.125000 0.745545
vn -0.0062 1.0000 0.0035
vn 0.1330 0.0477 0.9900
vn -0.8841 0.4561 -0.1013
vn 0.0049 -1.0000 0.0067
vn 0.7048 0.7067 -0.0612
vn 0.1291 0.0120 -0.9916
usemtl Material
s off
f 1/1/1 5/2/1 7/3/1 3/4/1
f 4/5/2 3/4/2 7/6/2 8/7/2
f 8/8/3 7/9/3 5/10/3 6/11/3
f 6/12/4 2/13/4 4/5/4 8/14/4
f 2/13/5 1/1/5 3/4/5 4/5/5
f 6/11/6 5/10/6 1/1/6 2/13/6
